<?xml version="1.0" standalone="no"?>
<!DOCTYPE svg PUBLIC "-//W3C//DTD SVG 20010904//EN"
 "http://www.w3.org/TR/2001/REC-SVG-20010904/DTD/svg10.dtd">
<svg version="1.0" xmlns="http://www.w3.org/2000/svg"
 width="274.000000pt" height="53.000000pt" viewBox="0 0 274.000000 53.000000"
 preserveAspectRatio="xMidYMid meet">

<g transform="translate(0.000000,53.000000) scale(0.100000,-0.100000)">
<path d="M415 477 c-22 -18 -28 -36 -37 -99 -11 -74 -12 -77 -57 -111 -81 -62
-147 -75 -175 -35 -22 32 -20 42 16 85 18 21 26 32 18 26 -18 -16 -52 -17 -68
-1 -19 19 -14 44 14 77 34 41 73 42 107 2 24 -29 25 -30 42 -11 23 25 15 43
-28 63 -118 56 -266 -48 -201 -142 12 -17 13 -26 5 -34 -6 -6 -11 -27 -11 -47
0 -27 7 -43 29 -64 60 -57 148 -41 244 43 l47 43 0 -51 c0 -47 2 -51 24 -51
21 0 24 5 29 62 5 54 10 67 36 90 37 33 91 39 91 10 0 -25 -19 -42 -48 -42
-20 0 -22 -4 -16 -22 11 -37 43 -77 74 -93 38 -20 41 -19 84 10 l36 24 36 -24
c45 -30 43 -30 85 -2 47 31 71 81 65 132 l-5 41 46 10 46 11 -5 -149 c-3 -81
-4 -148 -3 -148 1 0 16 7 33 16 l32 15 0 113 0 112 30 22 c16 12 36 22 43 22
19 0 27 -54 20 -123 -4 -42 -2 -57 12 -70 9 -9 20 -17 24 -17 5 0 32 32 62 71
74 97 71 95 102 94 27 0 27 0 27 -70 0 -78 5 -89 38 -100 17 -5 34 0 63 20
l40 26 26 -21 c70 -55 153 10 153 120 0 22 4 40 9 40 5 0 16 3 24 6 12 4 14
-3 10 -38 -8 -83 56 -154 118 -131 26 10 27 10 18 -19 -17 -60 -58 -79 -110
-53 -25 13 -33 14 -47 3 -9 -7 -19 -14 -21 -15 -2 -2 4 -12 14 -23 33 -37 125
-20 172 31 12 14 29 40 37 60 8 20 31 48 51 63 19 15 44 45 55 67 21 40 35 49
43 26 3 -9 7 -9 20 2 16 12 17 8 17 -50 0 -35 3 -74 6 -86 12 -44 59 -38 115
14 l26 24 16 -24 c45 -68 118 -46 235 70 40 40 74 73 76 73 12 0 65 -101 60
-114 -9 -25 -36 -35 -63 -25 -20 8 -23 14 -17 41 6 31 6 31 -14 13 -28 -25
-25 -49 11 -79 37 -31 63 -33 106 -6 57 35 52 83 -20 188 -35 51 -35 51 -50
29 -8 -12 -43 -50 -76 -84 -86 -87 -158 -122 -189 -91 -20 20 -14 27 29 38 48
13 89 50 89 79 0 12 -13 35 -29 53 -28 31 -30 32 -69 20 -52 -16 -89 -60 -98
-117 -6 -44 -31 -75 -60 -75 -7 0 -13 31 -17 81 -6 93 -17 112 -47 84 -18 -16
-20 -16 -26 -1 -13 34 -43 17 -69 -39 -23 -49 -74 -105 -95 -105 -4 0 -10 30
-12 66 -4 58 -8 70 -33 91 -34 29 -77 27 -124 -6 -34 -24 -68 -26 -95 -6 -33
25 -91 19 -127 -13 -26 -23 -31 -36 -36 -89 -5 -52 -9 -63 -30 -72 -13 -6 -29
-9 -34 -6 -5 4 -9 49 -9 101 0 87 -2 94 -20 94 -10 0 -23 -8 -29 -17 -9 -17
-10 -17 -16 0 -13 31 -42 19 -64 -26 -11 -23 -41 -62 -66 -87 l-45 -44 0 80
c0 49 -5 85 -12 92 -18 18 -53 15 -90 -8 -44 -26 -48 -25 -48 10 l0 30 -37
-24 c-58 -37 -96 -42 -132 -15 -28 20 -34 21 -71 10 -50 -15 -80 -59 -80 -117
0 -90 -99 -118 -128 -35 -10 28 -8 31 24 50 24 15 34 27 34 45 0 50 -58 55
-129 13 -36 -22 -36 -20 6 42 28 41 29 63 5 84 -25 22 -36 21 -67 -6z m65 -27
c0 -17 -27 -65 -44 -79 -14 -12 -16 -10 -16 12 0 43 18 77 40 77 11 0 20 -5
20 -10z m1330 -80 c39 -39 20 -160 -25 -160 -33 0 -64 74 -51 124 6 26 31 56
47 56 5 0 18 -9 29 -20z m523 -31 c0 -36 -24 -59 -61 -59 -18 0 -23 4 -18 16
3 9 6 22 6 30 0 8 12 27 26 41 30 30 47 20 47 -28z m-1525 2 c26 -14 29 -46 8
-95 -26 -61 -89 -56 -102 8 -7 42 2 74 29 104 18 19 23 21 32 9 5 -7 20 -19
33 -26z m797 -1 c32 0 9 -112 -26 -131 -68 -36 -102 87 -43 152 17 19 18 19
36 -1 10 -11 25 -20 33 -20z"/>
</g>
</svg>
